PathFileType	4	(X/Y/Z)	./resultDataOpenSim/trcMotMarkerGrf/sub09/qtm-03-03.trc
DataRate	CameraRate	NumFrames	NumMarkers	Units	OrigDataRate	OrigDataStartFrame	OrigNumFrames
250.000000	250.000000	7	24	m	250.000000	359	478
Frame#	Time	L.Toe.Tip			R.Toe.Tip			L.Ankle.Lat			R.Ankle.Lat			L.Ankle.Med			R.Ankle.Med			L.Heel			R.Heel			L.Knee.Lat			R.Knee.Lat			L.Knee.Med			R.Knee.Med			L.Thigh.Upper			R.Thigh.Upper			L.ASIS			R.ASIS			V.Sacral			L.Acromium			R.Acromium			C7			L.Elbow			R.Elbow			L.Wrist.Lat			R.Wrist.Lat
		X1	Y1	Z1	X2	Y2	Z2	X3	Y3	Z3	X4	Y4	Z4	X5	Y5	Z5	X6	Y6	Z6	X7	Y7	Z7	X8	Y8	Z8	X9	Y9	Z9	X10	Y10	Z10	X11	Y11	Z11	X12	Y12	Z12	X13	Y13	Z13	X14	Y14	Z14	X15	Y15	Z15	X16	Y16	Z16	X17	Y17	Z17	X18	Y18	Z18	X19	Y19	Z19	X20	Y20	Z20	X21	Y21	Z21	X22	Y22	Z22	X23	Y23	Z23	X24	Y24	Z24

359	1.432	0.81997045	0.12032681	0.00025016328	1.0125199	0.039351205	0.1318788	0.75558002	0.25981578	-0.038557248	0.86576808	0.055919922	0.16936731	0.77849907	0.24974788	0.057188495	0.87443578	0.091821049	0.075856147	0.67808913	0.28553103	0.0034759293	0.7949375	0.036418566	0.12268177	1.0789613	0.50539772	-0.043278505	0.99262947	0.49640597	0.21529391	1.0850256	0.49842772	0.086428386	0.96866914	0.48484652	0.091728697	0.89921673	0.87563599	-0.08987589	0.89332922	0.89502782	0.27964048	0.96608225	0.96523138	-0.033303086	0.97451103	0.97891682	0.20395903	0.79822069	1.026575	0.085354915	0.96101228	1.4259025	-0.086019057	0.94065752	1.4345431	0.2444703	0.88173583	1.4781288	0.076829902	0.84875995	1.0715326	-0.13501818	0.80709316	1.0951169	0.3327396	0.99992188	0.85537193	-0.16231024	0.96399355	0.86789644	0.33955572
360	1.436	0.83843342	0.11890849	-6.6478041e-05	1.0125623	0.039324326	0.13187372	0.77009494	0.25653316	-0.038141777	0.86585257	0.056133182	0.16921893	0.79424575	0.24655533	0.057300633	0.87465366	0.091957123	0.07573949	0.69189429	0.27988439	0.0042792311	0.7952011	0.036823105	0.12250572	1.0885552	0.50882759	-0.042982338	0.99393706	0.49629042	0.21535135	1.0906318	0.50140821	0.085586262	0.97053579	0.48452904	0.092259492	0.90587737	0.87742893	-0.08986047	0.89778162	0.89576529	0.27956837	0.97191991	0.96688174	-0.033099755	0.9799369	0.97989418	0.20417668	0.80370539	1.0277924	0.085359005	0.96598694	1.4270306	-0.086325991	0.94605667	1.4360051	0.24417625	0.88684247	1.4794652	0.076680767	0.85267469	1.0731179	-0.13521873	0.8128621	1.0963672	0.33266892	1.0023498	0.85616847	-0.16397085	0.9706278	0.8696289	0.33873461
361	1.44	0.85694751	0.11747072	-0.00023892921	1.0125873	0.039284262	0.13186097	0.7847336	0.25303712	-0.037743975	0.865944	0.056343996	0.16905962	0.80984312	0.2432812	0.057459393	0.87487819	0.092142431	0.075649001	0.70590784	0.27404403	0.0049763383	0.79546289	0.037161465	0.12245282	1.097966	0.51216102	-0.042762771	0.99525369	0.49617819	0.21540131	1.0972649	0.50442261	0.084982372	0.97218048	0.4843267	0.092582554	0.91243695	0.8791523	-0.089880833	0.90225178	0.89645593	0.27951371	0.97770573	0.96846136	-0.032891809	0.98536197	0.98080204	0.20439023	0.80958075	1.0288438	0.085135755	0.97096982	1.4280959	-0.086621385	0.95145223	1.4374056	0.24388801	0.89195756	1.4807385	0.076520968	0.85658226	1.0746589	-0.13545068	0.81862157	1.097558	0.33261411	1.0048074	0.8569398	-0.1656134	0.97725161	0.87128475	0.33791644
362	1.444	0.87551437	0.11600254	-0.00027412452	1.0126082	0.039236399	0.13183574	0.79949219	0.2493196	-0.037351304	0.86604491	0.056535768	0.16889236	0.82520095	0.23991388	0.057702737	0.87519735	0.092382087	0.075592229	0.72016028	0.26803335	0.0055399515	0.79575673	0.037422191	0.12247239	1.1072259	0.51538827	-0.042619588	0.99658603	0.49607334	0.21546037	1.1055965	0.50750879	0.084753464	0.97359235	0.48425631	0.092735925	0.9185868	0.88081059	-0.090087477	0.90686048	0.89711648	0.27945732	0.98345062	0.96996503	-0.03268897	0.99077903	0.98164478	0.20459967	0.81606078	1.0297196	0.084659422	0.97596071	1.4290967	-0.086906895	0.95684081	1.43874	0.24360268	0.8971185	1.4818904	0.076329149	0.86048708	1.0761461	-0.13570116	0.82439025	1.0986936	0.33257625	1.0072984	0.8576887	-0.1672308	0.98384375	0.87286031	0.33710472
363	1.448	0.8941532	0.11444727	-0.00019359408	1.0126683	0.039208518	0.13178363	0.81437753	0.24538663	-0.036968144	0.8661725	0.056702935	0.1687076	0.84043021	0.23644244	0.058013601	0.87560702	0.092661783	0.075537681	0.73463404	0.26188223	0.0060208431	0.79602603	0.037643262	0.12244255	1.1163459	0.51849046	-0.042522545	0.99793	0.49597306	0.21553469	1.1148072	0.51057608	0.084711855	0.97483764	0.48429592	0.092809971	0.92437296	0.88239759	-0.090448972	0.91160902	0.89774965	0.27939422	0.9891947	0.97138549	-0.032509273	0.99618	0.98242948	0.20479928	0.82299553	1.0304878	0.084078503	0.98095995	1.4300318	-0.087193468	0.9622215	1.4400056	0.24332013	0.9023175	1.482918	0.076106199	0.86438896	1.0775721	-0.13595873	0.83016648	1.0997728	0.33255066	1.0098167	0.85841152	-0.16882536	0.99038307	0.87435978	0.33630018
364	1.452	0.9128905	0.1127555	-3.5797176e-05	1.0128123	0.039220988	0.13169233	0.82939822	0.24126157	-0.036604134	0.86635894	0.056853679	0.16848774	0.85568684	0.23286921	0.058356088	0.87592899	0.092940689	0.075428598	0.74929497	0.25561684	0.0064828348	0.79619834	0.037874792	0.12226732	1.125307	0.52144009	-0.042442967	0.99928302	0.49587254	0.21563369	1.1241196	0.51354004	0.08467841	0.97598236	0.48441565	0.092858597	0.93010839	0.88389849	-0.090805712	0.91643819	0.89834764	0.27932125	0.99501657	0.97271391	-0.032383066	1.0015679	0.98316048	0.20497992	0.82984263	1.0312461	0.083614702	0.98596772	1.4309019	-0.087486786	0.96759469	1.4412006	0.24304214	0.90751447	1.4838584	0.075851382	0.86828561	1.0789328	-0.13622441	0.83593888	1.1007891	0.33253117	1.0123499	0.85909964	-0.17040609	0.99685767	0.87578662	0.33550425
365	1.456	0.93170845	0.1109322	0.00017080756	1.0130421	0.03926114	0.13156818	0.84456304	0.2369741	-0.036260626	0.86661039	0.05700794	0.16823265	0.87103963	0.2292053	0.058718215	0.87603307	0.093181634	0.075220502	0.76414481	0.24924169	0.006934264	0.79627838	0.03815029	0.12196374	1.1340657	0.5242187	-0.042385942	1.0006487	0.49577206	0.21577362	1.1332186	0.5163645	0.08457704	0.97711785	0.48455837	0.092899976	0.93598718	0.88529908	-0.09106625	0.92131259	0.89890161	0.27922259	1.0009923	0.97394764	-0.03234232	1.006957	0.98383535	0.20513314	0.83615238	1.0320403	0.083372576	0.99098365	1.4317072	-0.087782862	0.9729616	1.4423217	0.24276938	0.91267945	1.4847502	0.075554206	0.87218151	1.0802235	-0.13650816	0.84170123	1.1017367	0.33251388	1.0148939	0.85974658	-0.171977	1.0032724	0.87714088	0.33471747
